{
    "asset" : {
        "generator" : "Khronos glTF Blender I/O v1.4.40",
        "version" : "2.0"
    },
    "scene" : 0,
    "scenes" : [
        {
            "name" : "Scene",
            "nodes" : [
                0
            ]
        }
    ],
    "nodes" : [
        {
            "mesh" : 0,
            "name" : "jpow",
            "rotation" : [
                -0.008490229956805706,
                0.43850916624069214,
                0.8982062339782715,
                0.029380548745393753
            ],
            "scale" : [
                0.028997180983424187,
                0.02899717539548874,
                0.02899717539548874
            ],
            "translation" : [
                4.9860005378723145,
                8.755940437316895,
                7.320258140563965
            ]
        }
    ],
    "meshes" : [
        {
            "name" : "jpow",
            "primitives" : [
                {
                    "attributes" : {
                        "POSITION" : 0,
                        "NORMAL" : 1,
                        "TEXCOORD_0" : 2,
                        "COLOR_0" : 3
                    },
                    "indices" : 4
                }
            ]
        }
    ],
    "accessors" : [
        {
            "bufferView" : 0,
            "componentType" : 5126,
            "count" : 46407,
            "max" : [
                283.9601135253906,
                923.5135498046875,
                96.250244140625
            ],
            "min" : [
                -376.6410827636719,
                -153.81271362304688,
                -1187.2156982421875
            ],
            "type" : "VEC3"
        },
        {
            "bufferView" : 1,
            "componentType" : 5126,
            "count" : 46407,
            "type" : "VEC3"
        },
        {
            "bufferView" : 2,
            "componentType" : 5126,
            "count" : 46407,
            "type" : "VEC2"
        },
        {
            "bufferView" : 3,
            "componentType" : 5123,
            "count" : 46407,
            "normalized" : true,
            "type" : "VEC4"
        },
        {
            "bufferView" : 4,
            "componentType" : 5123,
            "count" : 173775,
            "type" : "SCALAR"
        }
    ],
    "bufferViews" : [
        {
            "buffer" : 0,
            "byteLength" : 556884,
            "byteOffset" : 0
        },
        {
            "buffer" : 0,
            "byteLength" : 556884,
            "byteOffset" : 556884
        },
        {
            "buffer" : 0,
            "byteLength" : 371256,
            "byteOffset" : 1113768
        },
        {
            "buffer" : 0,
            "byteLength" : 371256,
            "byteOffset" : 1485024
        },
        {
            "buffer" : 0,
            "byteLength" : 347550,
            "byteOffset" : 1856280
        }
    ],
    "buffers" : [
        {
            "byteLength" : 2203832,
            "uri" : "data:application/octet-stream;base64,"
        }
    ]
}
