{
  "accessors": [
    {
      "bufferView": 2,
      "componentType": 5126,
      "count": 65532,
      "max": [
        0.44914808869361877,
        0.27647039294242859,
        0.66534459590911865
      ],
      "min": [
        -0.4420560896396637,
        -0.24160036444664001,
        -0.96560877561569214
      ],
      "type": "VEC3"
    },
    {
      "bufferView": 2,
      "byteOffset": 786384,
      "componentType": 5126,
      "count": 65532,
      "max": [
        1,
        0.99999058246612549,
        0.99999845027923584
      ],
      "min": [
        -0.99995779991149902,
        -0.99999874830245972,
        -1
      ],
      "type": "VEC3"
    },
    {
      "bufferView": 3,
      "componentType": 5126,
      "count": 65532,
      "max": [
        0.99999982118606567,
        0.99999314546585083,
        0.9999997615814209,
        1
      ],
      "min": [
        -0.99999666213989258,
        -0.99999946355819702,
        -0.99998974800109863,
        -1
      ],
      "type": "VEC4"
    },
    {
      "bufferView": 1,
      "componentType": 5126,
      "count": 65532,
      "max": [
        0.99799001216888428,
        0.95754998922348022
      ],
      "min": [
        0.0019900000188499689,
        0.0038000000640749931
      ],
      "type": "VEC2"
    },
    {
      "bufferView": 0,
      "componentType": 5125,
      "count": 313155,
      "max": [
        65531
      ],
      "min": [
        0
      ],
      "type": "SCALAR"
    },
    {
      "bufferView": 2,
      "byteOffset": 1572768,
      "componentType": 5126,
      "count": 65533,
      "max": [
        0.44862112402915955,
        0.28354933857917786,
        1.0109831094741821
      ],
      "min": [
        -0.44915962219238281,
        -0.24148732423782349,
        -0.96560877561569214
      ],
      "type": "VEC3"
    },
    {
      "bufferView": 2,
      "byteOffset": 2359164,
      "componentType": 5126,
      "count": 65533,
      "max": [
        1,
        0.99998462200164795,
        1
      ],
      "min": [
        -0.99999266862869263,
        -0.99999850988388062,
        -1
      ],
      "type": "VEC3"
    },
    {
      "bufferView": 3,
      "byteOffset": 1048512,
      "componentType": 5126,
      "count": 65533,
      "max": [
        0.99999910593032837,
        0.99998700618743896,
        0.99986279010772705,
        1
      ],
      "min": [
        -0.9999765157699585,
        -0.99999856948852539,
        -0.99999910593032837,
        -1
      ],
      "type": "VEC4"
    },
    {
      "bufferView": 1,
      "byteOffset": 524256,
      "componentType": 5126,
      "count": 65533,
      "max": [
        0.9976000189781189,
        0.94463002681732178
      ],
      "min": [
        0.0020200000144541264,
        0.0019199999514967203
      ],
      "type": "VEC2"
    },
    {
      "bufferView": 0,
      "byteOffset": 1252620,
      "componentType": 5125,
      "count": 309459,
      "max": [
        65532
      ],
      "min": [
        0
      ],
      "type": "SCALAR"
    },
    {
      "bufferView": 2,
      "byteOffset": 3145560,
      "componentType": 5126,
      "count": 4526,
      "max": [
        0.43866929411888123,
        0.27287289500236511,
        1.0028742551803589
      ],
      "min": [
        -0.4479060173034668,
        -0.23759068548679352,
        -0.96558994054794312
      ],
      "type": "VEC3"
    },
    {
      "bufferView": 2,
      "byteOffset": 3199872,
      "componentType": 5126,
      "count": 4526,
      "max": [
        0.99999696016311646,
        0.99997800588607788,
        0.99999624490737915
      ],
      "min": [
        -0.99998444318771362,
        -0.99997091293334961,
        -1
      ],
      "type": "VEC3"
    },
    {
      "bufferView": 3,
      "byteOffset": 2097040,
      "componentType": 5126,
      "count": 4526,
      "max": [
        0.99966317415237427,
        0.99983525276184082,
        0.99972516298294067,
        1
      ],
      "min": [
        -0.99890220165252686,
        -0.99993115663528442,
        -0.9999464750289917,
        -1
      ],
      "type": "VEC4"
    },
    {
      "bufferView": 1,
      "byteOffset": 1048520,
      "componentType": 5126,
      "count": 4526,
      "max": [
        0.99773997068405151,
        0.94836002588272095
      ],
      "min": [
        0.012729999609291553,
        0.0064599998295307159
      ],
      "type": "VEC2"
    },
    {
      "bufferView": 0,
      "byteOffset": 2490456,
      "componentType": 5125,
      "count": 5766,
      "max": [
        4525
      ],
      "min": [
        0
      ],
      "type": "SCALAR"
    }
  ],
  "asset": {
    "extras": {
      "author": "SCREENPLAYER Studios (https://sketchfab.com/Ryu_Ookami)",
      "license": "CC-BY-NC-4.0 (http://creativecommons.org/licenses/by-nc/4.0/)",
      "source": "https://sketchfab.com/models/1b471fd107fb4f29a40b0dae609facae",
      "title": "St. Franziscus (Spontaneous Scan)"
    },
    "generator": "Sketchfab-3.48.1",
    "version": "2.0"
  },
  "bufferViews": [
    {
      "buffer": 0,
      "byteLength": 2513520,
      "byteOffset": 0,
      "name": "floatBufferViews",
      "target": 34963
    },
    {
      "buffer": 0,
      "byteLength": 1084728,
      "byteOffset": 2513520,
      "byteStride": 8,
      "name": "floatBufferViews",
      "target": 34962
    },
    {
      "buffer": 0,
      "byteLength": 3254184,
      "byteOffset": 3598248,
      "byteStride": 12,
      "name": "floatBufferViews",
      "target": 34962
    },
    {
      "buffer": 0,
      "byteLength": 2169456,
      "byteOffset": 6852432,
      "byteStride": 16,
      "name": "floatBufferViews",
      "target": 34962
    }
  ],
  "buffers": [
    {
      "byteLength": 9021888,
      "uri": "scene.bin"
    }
  ],
  "extensionsRequired": [
    "KHR_materials_pbrSpecularGlossiness"
  ],
  "extensionsUsed": [
    "KHR_materials_pbrSpecularGlossiness"
  ],
  "images": [
    {
      "uri": "textures/defaultMat_occlusion.png"
    },
    {
      "uri": "textures/defaultMat_diffuse.jpeg"
    },
    {
      "uri": "textures/defaultMat_specularGlossiness.jpeg"
    },
    {
      "uri": "textures/defaultMat_normal.jpeg"
    }
  ],
  "materials": [
    {
      "doubleSided": true,
      "extensions": {
        "KHR_materials_pbrSpecularGlossiness": {
          "diffuseFactor": [
            1,
            1,
            1,
            1
          ],
          "diffuseTexture": {
            "index": 1,
            "texCoord": 0
          },
          "glossinessFactor": 0.80000000000000004,
          "specularFactor": [
            0.080000000000000002,
            0.080000000000000002,
            0.080000000000000002
          ],
          "specularGlossinessTexture": {
            "index": 2,
            "texCoord": 0
          }
        }
      },
      "name": "defaultMat",
      "normalTexture": {
        "index": 3,
        "scale": 1,
        "texCoord": 0
      },
      "occlusionTexture": {
        "index": 0,
        "strength": 1,
        "texCoord": 0
      }
    }
  ],
  "meshes": [
    {
      "primitives": [
        {
          "attributes": {
            "NORMAL": 1,
            "POSITION": 0,
            "TANGENT": 2,
            "TEXCOORD_0": 3
          },
          "indices": 4,
          "material": 0,
          "mode": 4
        }
      ]
    },
    {
      "primitives": [
        {
          "attributes": {
            "NORMAL": 6,
            "POSITION": 5,
            "TANGENT": 7,
            "TEXCOORD_0": 8
          },
          "indices": 9,
          "material": 0,
          "mode": 4
        }
      ]
    },
    {
      "primitives": [
        {
          "attributes": {
            "NORMAL": 11,
            "POSITION": 10,
            "TANGENT": 12,
            "TEXCOORD_0": 13
          },
          "indices": 14,
          "material": 0,
          "mode": 4
        }
      ]
    }
  ],
  "nodes": [
    {
      "children": [
        1
      ],
      "name": "RootNode (gltf orientation matrix)",
      "rotation": [
        -0.70710678118654746,
        -0,
        -0,
        0.70710678118654757
      ]
    },
    {
      "children": [
        2
      ],
      "name": "RootNode (model correction matrix)"
    },
    {
      "children": [
        3,
        4,
        5
      ],
      "name": "Franziscus_Low.OBJ.cleaner"
    },
    {
      "mesh": 0,
      "name": ""
    },
    {
      "mesh": 1,
      "name": ""
    },
    {
      "mesh": 2,
      "name": ""
    }
  ],
  "samplers": [
    {
      "magFilter": 9729,
      "minFilter": 9987,
      "wrapS": 10497,
      "wrapT": 10497
    }
  ],
  "scene": 0,
  "scenes": [
    {
      "name": "OSG_Scene",
      "nodes": [
        0
      ]
    }
  ],
  "textures": [
    {
      "sampler": 0,
      "source": 0
    },
    {
      "sampler": 0,
      "source": 1
    },
    {
      "sampler": 0,
      "source": 2
    },
    {
      "sampler": 0,
      "source": 3
    }
  ]
}

